<mxfile host="app.diagrams.net" modified="2023-08-24T00:48:05.619Z" agent="Mozilla/5.0 (Windows NT 10.0; Win64; x64) AppleWebKit/537.36 (KHTML, like Gecko) Chrome/116.0.0.0 Safari/537.36 Edg/116.0.1938.54" etag="C2Cn5ZNa173FGYoSJcCt" version="21.6.8" type="github">
  <diagram name="第 1 页" id="LZYfN8Qb-46NnNl3OFI-">
    <mxGraphModel dx="1139" dy="616" grid="1" gridSize="10" guides="1" tooltips="1" connect="1" arrows="1" fold="1" page="1" pageScale="1" pageWidth="827" pageHeight="1169" math="0" shadow="0">
      <root>
        <mxCell id="0" />
        <mxCell id="1" parent="0" />
        <mxCell id="YOYZqp5rT2E9GzHTg75s-17" value="" style="rounded=1;whiteSpace=wrap;html=1;" vertex="1" parent="1">
          <mxGeometry x="140" y="250" width="600" height="250" as="geometry" />
        </mxCell>
        <mxCell id="YOYZqp5rT2E9GzHTg75s-16" style="edgeStyle=orthogonalEdgeStyle;rounded=0;orthogonalLoop=1;jettySize=auto;html=1;exitX=0.5;exitY=1;exitDx=0;exitDy=0;entryX=0.5;entryY=0;entryDx=0;entryDy=0;" edge="1" parent="1" source="YOYZqp5rT2E9GzHTg75s-1" target="YOYZqp5rT2E9GzHTg75s-2">
          <mxGeometry relative="1" as="geometry" />
        </mxCell>
        <mxCell id="YOYZqp5rT2E9GzHTg75s-1" value="exchange-server（交易服务）" style="rounded=1;whiteSpace=wrap;html=1;" vertex="1" parent="1">
          <mxGeometry x="250" y="20" width="370" height="60" as="geometry" />
        </mxCell>
        <mxCell id="YOYZqp5rT2E9GzHTg75s-19" style="edgeStyle=orthogonalEdgeStyle;rounded=0;orthogonalLoop=1;jettySize=auto;html=1;exitX=0.5;exitY=1;exitDx=0;exitDy=0;entryX=0.5;entryY=0;entryDx=0;entryDy=0;" edge="1" parent="1" source="YOYZqp5rT2E9GzHTg75s-2" target="YOYZqp5rT2E9GzHTg75s-9">
          <mxGeometry relative="1" as="geometry" />
        </mxCell>
        <mxCell id="YOYZqp5rT2E9GzHTg75s-2" value="RabbitMQ" style="ellipse;whiteSpace=wrap;html=1;aspect=fixed;" vertex="1" parent="1">
          <mxGeometry x="395" y="130" width="80" height="80" as="geometry" />
        </mxCell>
        <mxCell id="YOYZqp5rT2E9GzHTg75s-20" style="edgeStyle=orthogonalEdgeStyle;rounded=0;orthogonalLoop=1;jettySize=auto;html=1;exitX=0.5;exitY=1;exitDx=0;exitDy=0;entryX=0.5;entryY=0;entryDx=0;entryDy=0;" edge="1" parent="1" source="YOYZqp5rT2E9GzHTg75s-9" target="YOYZqp5rT2E9GzHTg75s-13">
          <mxGeometry relative="1" as="geometry" />
        </mxCell>
        <mxCell id="YOYZqp5rT2E9GzHTg75s-21" style="edgeStyle=orthogonalEdgeStyle;rounded=0;orthogonalLoop=1;jettySize=auto;html=1;exitX=0.5;exitY=1;exitDx=0;exitDy=0;" edge="1" parent="1" source="YOYZqp5rT2E9GzHTg75s-9" target="YOYZqp5rT2E9GzHTg75s-14">
          <mxGeometry relative="1" as="geometry" />
        </mxCell>
        <mxCell id="YOYZqp5rT2E9GzHTg75s-22" style="edgeStyle=orthogonalEdgeStyle;rounded=0;orthogonalLoop=1;jettySize=auto;html=1;exitX=0.5;exitY=1;exitDx=0;exitDy=0;" edge="1" parent="1" source="YOYZqp5rT2E9GzHTg75s-9" target="YOYZqp5rT2E9GzHTg75s-15">
          <mxGeometry relative="1" as="geometry" />
        </mxCell>
        <mxCell id="YOYZqp5rT2E9GzHTg75s-9" value="RingBuffer" style="rounded=0;whiteSpace=wrap;html=1;" vertex="1" parent="1">
          <mxGeometry x="375" y="270" width="120" height="60" as="geometry" />
        </mxCell>
        <mxCell id="YOYZqp5rT2E9GzHTg75s-13" value="EventHandler" style="rounded=0;whiteSpace=wrap;html=1;" vertex="1" parent="1">
          <mxGeometry x="210" y="400" width="120" height="60" as="geometry" />
        </mxCell>
        <mxCell id="YOYZqp5rT2E9GzHTg75s-14" value="EventHandler" style="rounded=0;whiteSpace=wrap;html=1;" vertex="1" parent="1">
          <mxGeometry x="375" y="400" width="120" height="60" as="geometry" />
        </mxCell>
        <mxCell id="YOYZqp5rT2E9GzHTg75s-15" value="EventHandler" style="rounded=0;whiteSpace=wrap;html=1;" vertex="1" parent="1">
          <mxGeometry x="560" y="400" width="120" height="60" as="geometry" />
        </mxCell>
        <mxCell id="YOYZqp5rT2E9GzHTg75s-18" value="match-server" style="text;html=1;strokeColor=none;fillColor=none;align=center;verticalAlign=middle;whiteSpace=wrap;rounded=0;" vertex="1" parent="1">
          <mxGeometry x="140" y="270" width="130" height="30" as="geometry" />
        </mxCell>
        <mxCell id="YOYZqp5rT2E9GzHTg75s-23" value="每个Handler只处理一种交易对，有多少个交易对就会创建多少个handler" style="text;html=1;strokeColor=none;fillColor=none;align=center;verticalAlign=middle;whiteSpace=wrap;rounded=0;" vertex="1" parent="1">
          <mxGeometry x="170" y="330" width="200" height="30" as="geometry" />
        </mxCell>
        <mxCell id="YOYZqp5rT2E9GzHTg75s-24" value="交易对" style="rounded=1;whiteSpace=wrap;html=1;" vertex="1" parent="1">
          <mxGeometry x="184" y="560" width="120" height="60" as="geometry" />
        </mxCell>
        <mxCell id="YOYZqp5rT2E9GzHTg75s-25" value="交易账本单" style="rounded=1;whiteSpace=wrap;html=1;" vertex="1" parent="1">
          <mxGeometry x="519" y="560" width="120" height="60" as="geometry" />
        </mxCell>
        <mxCell id="YOYZqp5rT2E9GzHTg75s-27" value="" style="endArrow=classic;startArrow=classic;html=1;rounded=0;entryX=0;entryY=0.5;entryDx=0;entryDy=0;exitX=1;exitY=0.5;exitDx=0;exitDy=0;" edge="1" parent="1" source="YOYZqp5rT2E9GzHTg75s-24" target="YOYZqp5rT2E9GzHTg75s-25">
          <mxGeometry width="50" height="50" relative="1" as="geometry">
            <mxPoint x="304" y="595" as="sourcePoint" />
            <mxPoint x="354" y="545" as="targetPoint" />
          </mxGeometry>
        </mxCell>
        <mxCell id="YOYZqp5rT2E9GzHTg75s-28" value="一个交易对对应一个交易账本单" style="text;html=1;strokeColor=none;fillColor=none;align=center;verticalAlign=middle;whiteSpace=wrap;rounded=0;" vertex="1" parent="1">
          <mxGeometry x="314" y="560" width="186" height="30" as="geometry" />
        </mxCell>
        <mxCell id="YOYZqp5rT2E9GzHTg75s-37" value="交易对" style="rounded=1;whiteSpace=wrap;html=1;" vertex="1" parent="1">
          <mxGeometry x="189" y="655" width="120" height="60" as="geometry" />
        </mxCell>
        <mxCell id="YOYZqp5rT2E9GzHTg75s-38" value="交易账本单" style="rounded=1;whiteSpace=wrap;html=1;" vertex="1" parent="1">
          <mxGeometry x="524" y="655" width="120" height="60" as="geometry" />
        </mxCell>
        <mxCell id="YOYZqp5rT2E9GzHTg75s-39" value="" style="endArrow=classic;startArrow=classic;html=1;rounded=0;entryX=0;entryY=0.5;entryDx=0;entryDy=0;exitX=1;exitY=0.5;exitDx=0;exitDy=0;" edge="1" parent="1" source="YOYZqp5rT2E9GzHTg75s-37" target="YOYZqp5rT2E9GzHTg75s-38">
          <mxGeometry width="50" height="50" relative="1" as="geometry">
            <mxPoint x="309" y="690" as="sourcePoint" />
            <mxPoint x="359" y="640" as="targetPoint" />
          </mxGeometry>
        </mxCell>
        <mxCell id="YOYZqp5rT2E9GzHTg75s-40" value="一个交易对对应一个交易账本单" style="text;html=1;strokeColor=none;fillColor=none;align=center;verticalAlign=middle;whiteSpace=wrap;rounded=0;" vertex="1" parent="1">
          <mxGeometry x="319" y="655" width="186" height="30" as="geometry" />
        </mxCell>
        <mxCell id="YOYZqp5rT2E9GzHTg75s-41" value="交易对" style="rounded=1;whiteSpace=wrap;html=1;" vertex="1" parent="1">
          <mxGeometry x="189" y="745" width="120" height="60" as="geometry" />
        </mxCell>
        <mxCell id="YOYZqp5rT2E9GzHTg75s-42" value="交易账本单" style="rounded=1;whiteSpace=wrap;html=1;" vertex="1" parent="1">
          <mxGeometry x="524" y="745" width="120" height="60" as="geometry" />
        </mxCell>
        <mxCell id="YOYZqp5rT2E9GzHTg75s-43" value="" style="endArrow=classic;startArrow=classic;html=1;rounded=0;entryX=0;entryY=0.5;entryDx=0;entryDy=0;exitX=1;exitY=0.5;exitDx=0;exitDy=0;" edge="1" parent="1" source="YOYZqp5rT2E9GzHTg75s-41" target="YOYZqp5rT2E9GzHTg75s-42">
          <mxGeometry width="50" height="50" relative="1" as="geometry">
            <mxPoint x="309" y="780" as="sourcePoint" />
            <mxPoint x="359" y="730" as="targetPoint" />
          </mxGeometry>
        </mxCell>
        <mxCell id="YOYZqp5rT2E9GzHTg75s-44" value="一个交易对对应一个交易账本单" style="text;html=1;strokeColor=none;fillColor=none;align=center;verticalAlign=middle;whiteSpace=wrap;rounded=0;" vertex="1" parent="1">
          <mxGeometry x="319" y="745" width="186" height="30" as="geometry" />
        </mxCell>
        <mxCell id="YOYZqp5rT2E9GzHTg75s-45" value="String symbol ,eg:" style="text;html=1;strokeColor=none;fillColor=none;align=center;verticalAlign=middle;whiteSpace=wrap;rounded=0;" vertex="1" parent="1">
          <mxGeometry x="50" y="575" width="60" height="30" as="geometry" />
        </mxCell>
      </root>
    </mxGraphModel>
  </diagram>
</mxfile>
